<?xml version="1.0" standalone="no"?>
<!DOCTYPE svg PUBLIC "-//W3C//DTD SVG 20010904//EN"
 "http://www.w3.org/TR/2001/REC-SVG-20010904/DTD/svg10.dtd">
<svg version="1.0" xmlns="http://www.w3.org/2000/svg"
 width="228.000000pt" height="300.000000pt" viewBox="0 0 228.000000 300.000000"
 preserveAspectRatio="xMidYMid meet">
<metadata>
Created by potrace 1.10, written by Peter Selinger 2001-2011
</metadata>
<g transform="translate(0.000000,300.000000) scale(0.100000,-0.100000)"
fill="#000000" stroke="none">
<path d="M1054 2919 c-43 -45 -125 -129 -181 -187 -57 -58 -103 -107 -103
-109 0 -8 -345 -352 -389 -388 -28 -22 -50 -45 -51 -50 0 -6 -31 -42 -70 -80
-38 -38 -70 -75 -70 -81 0 -6 29 -38 65 -72 35 -33 70 -71 76 -85 6 -13 29
-39 51 -58 50 -42 346 -336 453 -449 44 -47 92 -92 106 -100 15 -8 45 -37 67
-65 22 -27 60 -70 85 -94 l46 -44 93 95 c51 53 132 136 180 184 47 49 197 199
332 333 135 135 246 246 246 248 0 2 16 17 35 34 40 36 45 50 13 41 -22 -5
-256 -228 -412 -391 -45 -47 -127 -131 -183 -187 -57 -56 -103 -107 -103 -113
0 -6 -12 -18 -27 -28 -42 -25 -93 -75 -93 -90 0 -8 -10 -17 -22 -22 -13 -5
-31 -18 -41 -28 -17 -20 -19 -18 -117 79 -55 54 -100 100 -100 102 0 4 -353
357 -422 422 -24 22 -45 45 -47 50 -2 5 -11 14 -20 21 -9 6 -16 17 -16 25 0 7
-5 13 -11 13 -5 0 -48 37 -95 83 -46 45 -90 82 -96 82 -18 0 -16 17 2 23 8 4
28 25 45 48 17 23 44 51 60 61 17 10 39 32 50 50 11 18 25 33 32 33 7 0 12 9
10 19 -2 10 2 16 8 14 7 -2 56 41 109 96 53 54 97 98 99 97 2 -2 6 0 10 3 3 3
0 6 -7 6 -7 0 -10 4 -6 10 3 5 11 7 18 5 7 -3 21 8 31 24 11 16 32 36 47 45
16 9 38 34 50 55 12 22 27 37 34 35 7 -3 15 6 19 21 8 31 36 78 43 71 3 -2 -3
-16 -13 -30 -24 -38 -8 -45 24 -12 15 16 21 26 15 22 -18 -10 -16 9 2 24 8 7
15 9 15 4 0 -4 13 7 28 24 16 18 34 32 40 32 16 0 15 11 -2 24 -13 9 -11 14
10 29 16 12 24 14 24 6 0 -7 14 0 30 16 17 16 30 34 30 40 0 6 11 21 24 34
l23 22 31 -36 c17 -19 36 -35 41 -35 5 0 13 -5 17 -12 5 -7 3 -8 -6 -3 -8 5
-11 4 -6 -3 4 -6 13 -9 21 -6 8 3 20 -4 27 -16 7 -12 28 -30 46 -41 17 -12 32
-25 32 -31 0 -6 -7 -5 -17 3 -10 7 2 -8 27 -34 24 -26 49 -47 55 -47 13 0 80
-72 77 -82 -1 -5 7 -8 18 -8 31 0 24 11 -45 69 -36 30 -75 68 -87 85 -13 17
-70 77 -129 134 l-106 103 -79 -82z"/>
<path d="M1522 2592 c-9 -6 -5 -15 16 -35 19 -18 31 -24 42 -17 15 10 10 20
-12 24 -22 3 -39 17 -33 27 7 11 4 11 -13 1z"/>
<path d="M762 2438 c-5 -76 -8 -332 -4 -315 2 9 8 17 13 17 11 0 1 -49 -13
-67 -5 -7 -5 -14 2 -18 5 -3 10 -32 10 -63 0 -87 28 -227 55 -279 14 -25 25
-52 25 -59 0 -16 57 -64 76 -64 9 0 14 11 14 30 0 20 -5 30 -15 30 -9 0 -15 9
-15 22 0 27 36 102 57 119 13 11 18 9 35 -14 11 -15 26 -27 33 -27 8 0 18 -6
22 -14 4 -8 17 -16 28 -18 11 -1 26 -9 34 -16 8 -8 23 -11 33 -9 11 3 22 -1
25 -9 3 -9 20 -14 49 -14 37 0 44 3 44 20 0 18 -15 25 -42 21 -13 -2 -122 66
-142 88 -15 16 -18 31 -14 71 4 42 17 68 69 145 35 52 69 95 76 95 7 0 16 7
21 16 18 33 168 144 229 170 35 15 63 30 63 33 -1 21 -24 33 -76 37 -32 2 -67
7 -77 10 -24 8 -130 -62 -209 -137 -89 -85 -117 -109 -126 -109 -5 0 -14 -10
-21 -22 -6 -13 -19 -35 -29 -49 -9 -14 -35 -53 -57 -87 -22 -34 -44 -62 -49
-62 -5 0 -6 19 -3 43 3 23 11 76 16 117 6 41 15 86 20 100 5 14 12 52 15 84 4
33 16 76 28 98 12 21 20 39 17 41 -2 2 -22 17 -44 34 -33 25 -45 29 -69 22
-19 -5 -41 -3 -64 6 -19 8 -35 15 -36 15 -2 0 -3 -15 -4 -32z m142 -41 c18
-13 18 -17 3 -83 -19 -79 -41 -197 -57 -301 -12 -74 -7 -96 24 -123 24 -19 58
9 119 100 90 134 322 340 384 340 34 0 28 -13 -19 -47 -91 -65 -185 -158 -241
-236 -70 -98 -87 -135 -87 -194 0 -41 -1 -43 -21 -33 -35 19 -68 3 -101 -50
-17 -27 -35 -47 -40 -44 -27 17 -55 170 -62 334 -2 63 -8 154 -12 201 -9 114
-3 137 39 142 17 2 37 5 43 5 5 1 18 -4 28 -11z"/>
<path d="M1730 2375 c0 -8 9 -19 19 -25 27 -14 31 -13 24 8 -11 30 -43 43 -43
17z"/>
<path d="M1890 2215 c0 -9 54 -54 64 -55 6 0 -3 14 -19 30 -27 28 -45 38 -45
25z"/>
<path d="M1286 1691 c-15 -23 7 -31 75 -29 76 3 89 12 32 21 -21 4 -52 9 -69
13 -19 3 -34 2 -38 -5z"/>
<path d="M985 851 c-3 -6 -3 -16 1 -22 6 -10 7 -270 1 -275 -1 -1 -22 -4 -47
-5 l-45 -3 0 62 c0 50 -4 65 -17 73 -10 6 -18 9 -19 7 -2 -6 -6 -64 -8 -105
-1 -42 -2 -43 -36 -43 -25 0 -35 -4 -35 -15 0 -13 7 -15 35 -9 l36 6 -3 -88
c-2 -100 10 -134 46 -134 13 0 39 13 57 30 l34 29 3 -24 c3 -23 28 -52 37 -43
3 2 6 30 9 60 5 75 35 160 56 156 12 -3 15 -18 15 -73 0 -39 4 -76 8 -82 14
-22 46 -14 61 15 8 16 21 34 30 41 13 11 14 8 5 -24 -13 -47 -6 -65 25 -65 30
0 42 16 26 36 -9 9 -11 36 -8 79 5 52 3 67 -12 80 -14 13 -19 13 -28 2 -7 -8
-7 -18 -2 -27 12 -19 3 -49 -23 -78 -38 -41 -49 -29 -45 48 2 54 -1 74 -14 86
-34 34 -79 -1 -90 -70 -2 -11 -9 -21 -15 -24 -16 -5 -17 65 -4 153 6 33 12 94
16 136 5 70 4 77 -19 98 -15 14 -26 19 -31 12z m-3 -396 c-3 -67 -6 -77 -30
-95 -14 -12 -35 -20 -46 -18 -18 3 -22 12 -26 65 -9 106 -8 107 95 122 6 0 9
-28 7 -74z"/>
<path d="M560 808 c0 -23 -42 -70 -165 -183 -33 -30 -65 -55 -71 -55 -8 0 -10
29 -6 95 7 146 -20 172 -130 120 -120 -57 -177 -101 -178 -138 0 -40 31 -28
98 37 37 36 86 76 110 88 42 22 44 23 57 4 8 -11 12 -32 10 -50 -3 -17 -7 -77
-9 -133 -3 -71 -10 -109 -21 -127 -15 -23 -15 -26 4 -45 25 -25 28 -77 6 -101
-20 -22 -6 -65 23 -72 18 -5 19 1 20 109 0 108 2 117 27 154 15 21 32 36 37
33 5 -3 45 -60 90 -127 151 -226 205 -292 283 -349 79 -58 166 -75 213 -42 33
23 86 134 63 134 -5 0 -15 -15 -21 -34 -6 -19 -22 -46 -35 -60 -49 -53 -120
-26 -248 94 -78 72 -239 282 -296 383 l-21 38 42 44 c24 24 48 49 54 57 7 7
35 34 63 60 45 41 51 50 41 68 -15 27 -40 26 -40 -2z"/>
<path d="M1209 625 c-8 -30 11 -54 43 -55 28 0 33 22 8 42 -21 17 -48 24 -51
13z"/>
<path d="M2150 600 c-14 -4 -40 -8 -58 -9 -26 -1 -33 -5 -30 -18 4 -20 33 -22
86 -5 l32 11 0 -40 c0 -40 -9 -47 -74 -54 -36 -4 -37 -5 -30 -16 4 -7 22 -9
45 -6 44 6 50 -8 24 -53 -8 -14 -14 -40 -15 -57 0 -26 4 -33 20 -33 11 0 20 3
21 8 0 4 2 28 4 54 3 63 27 98 65 98 20 0 30 5 30 15 0 11 -11 15 -36 15 -32
0 -35 2 -28 23 4 12 8 33 8 47 1 28 -20 34 -64 20z"/>
<path d="M1684 538 c-26 -30 -54 -93 -54 -122 0 -30 40 -66 74 -66 17 0 41 13
67 38 33 31 42 46 46 83 5 41 2 48 -22 67 -37 29 -86 29 -111 0z m84 -20 c34
-34 -10 -127 -61 -128 -32 0 -40 47 -17 97 21 45 52 57 78 31z"/>
<path d="M1899 544 c-8 -11 -23 -37 -33 -60 -51 -117 40 -180 131 -89 29 29
33 40 33 83 0 59 -13 73 -73 79 -33 4 -46 1 -58 -13z m91 -35 c23 -42 -20
-119 -66 -119 -45 0 -46 58 -1 128 13 20 55 14 67 -9z"/>
<path d="M1381 521 c-12 -12 -21 -30 -21 -41 0 -11 -4 -20 -10 -20 -5 0 -10 6
-10 14 0 16 -28 42 -36 33 -3 -3 4 -27 15 -52 12 -26 21 -60 21 -74 0 -26 16
-51 32 -51 4 0 7 27 6 60 -3 68 23 116 61 114 32 -1 22 30 -11 34 -17 2 -34
-4 -47 -17z"/>
<path d="M1547 523 c-8 -10 -19 -31 -23 -47 l-7 -28 -13 31 c-13 31 -34 43
-34 19 1 -7 9 -31 20 -53 11 -22 19 -55 20 -72 0 -18 2 -33 4 -33 2 0 12 -3
21 -6 14 -6 16 0 10 53 -7 54 -5 61 20 91 19 23 33 31 46 27 13 -4 19 -2 19 8
0 30 -58 36 -83 10z"/>
<path d="M627 456 c-33 -42 -34 -59 -5 -86 29 -27 51 -25 79 5 31 32 36 31 44
-4 9 -42 28 -56 57 -39 l23 13 -22 3 c-25 4 -39 52 -30 101 4 21 2 31 -9 35
-26 10 -32 7 -38 -18 -8 -31 -54 -86 -72 -86 -23 0 -16 39 12 65 14 13 30 23
34 22 4 -1 10 3 12 8 1 6 -11 11 -28 13 -25 2 -36 -3 -57 -32z"/>
</g>
</svg>
